<svg xmlns="http://www.w3.org/2000/svg" viewBox="0 0 28 28" shape-rendering="crispEdges" role="img">
<rect width="28" height="28" fill="#22d3b8"/>
<rect x="9" y="4" width="4" height="1" fill="#10233a"/>
<rect x="15" y="4" width="4" height="1" fill="#10233a"/>
<rect x="7" y="5" width="2" height="1" fill="#10233a"/>
<rect x="9" y="5" width="4" height="1" fill="#ff8fb1"/>
<rect x="13" y="5" width="2" height="1" fill="#10233a"/>
<rect x="15" y="5" width="4" height="1" fill="#ff8fb1"/>
<rect x="19" y="5" width="2" height="1" fill="#10233a"/>
<rect x="6" y="6" width="1" height="1" fill="#10233a"/>
<rect x="7" y="6" width="6" height="1" fill="#ff8fb1"/>
<rect x="13" y="6" width="2" height="1" fill="#10233a"/>
<rect x="15" y="6" width="6" height="1" fill="#ff8fb1"/>
<rect x="21" y="6" width="1" height="1" fill="#10233a"/>
<rect x="5" y="7" width="1" height="1" fill="#10233a"/>
<rect x="6" y="7" width="2" height="1" fill="#ff8fb1"/>
<rect x="8" y="7" width="1" height="1" fill="#ffd6e2"/>
<rect x="9" y="7" width="4" height="1" fill="#ff8fb1"/>
<rect x="13" y="7" width="2" height="1" fill="#10233a"/>
<rect x="15" y="7" width="4" height="1" fill="#ff8fb1"/>
<rect x="19" y="7" width="1" height="1" fill="#ffd6e2"/>
<rect x="20" y="7" width="2" height="1" fill="#ff8fb1"/>
<rect x="22" y="7" width="1" height="1" fill="#10233a"/>
<rect x="5" y="8" width="1" height="1" fill="#10233a"/>
<rect x="6" y="8" width="2" height="1" fill="#ff8fb1"/>
<rect x="8" y="8" width="3" height="1" fill="#ffd6e2"/>
<rect x="11" y="8" width="2" height="1" fill="#ff8fb1"/>
<rect x="13" y="8" width="2" height="1" fill="#10233a"/>
<rect x="15" y="8" width="2" height="1" fill="#ff8fb1"/>
<rect x="17" y="8" width="3" height="1" fill="#ffd6e2"/>
<rect x="20" y="8" width="2" height="1" fill="#ff8fb1"/>
<rect x="22" y="8" width="1" height="1" fill="#10233a"/>
<rect x="4" y="9" width="1" height="1" fill="#10233a"/>
<rect x="5" y="9" width="5" height="1" fill="#ff8fb1"/>
<rect x="10" y="9" width="1" height="1" fill="#ffd6e2"/>
<rect x="11" y="9" width="2" height="1" fill="#ff8fb1"/>
<rect x="13" y="9" width="2" height="1" fill="#10233a"/>
<rect x="15" y="9" width="2" height="1" fill="#ff8fb1"/>
<rect x="17" y="9" width="1" height="1" fill="#ffd6e2"/>
<rect x="18" y="9" width="5" height="1" fill="#ff8fb1"/>
<rect x="23" y="9" width="1" height="1" fill="#10233a"/>
<rect x="4" y="10" width="1" height="1" fill="#10233a"/>
<rect x="5" y="10" width="5" height="1" fill="#ff8fb1"/>
<rect x="10" y="10" width="2" height="1" fill="#ffd6e2"/>
<rect x="12" y="10" width="1" height="1" fill="#ff8fb1"/>
<rect x="13" y="10" width="2" height="1" fill="#10233a"/>
<rect x="15" y="10" width="1" height="1" fill="#ff8fb1"/>
<rect x="16" y="10" width="2" height="1" fill="#ffd6e2"/>
<rect x="18" y="10" width="5" height="1" fill="#ff8fb1"/>
<rect x="23" y="10" width="1" height="1" fill="#10233a"/>
<rect x="4" y="11" width="1" height="1" fill="#10233a"/>
<rect x="5" y="11" width="2" height="1" fill="#ff8fb1"/>
<rect x="7" y="11" width="2" height="1" fill="#ffd6e2"/>
<rect x="9" y="11" width="2" height="1" fill="#ff8fb1"/>
<rect x="11" y="11" width="1" height="1" fill="#ffd6e2"/>
<rect x="12" y="11" width="1" height="1" fill="#ff8fb1"/>
<rect x="13" y="11" width="2" height="1" fill="#10233a"/>
<rect x="15" y="11" width="1" height="1" fill="#ff8fb1"/>
<rect x="16" y="11" width="1" height="1" fill="#ffd6e2"/>
<rect x="17" y="11" width="2" height="1" fill="#ff8fb1"/>
<rect x="19" y="11" width="2" height="1" fill="#ffd6e2"/>
<rect x="21" y="11" width="2" height="1" fill="#ff8fb1"/>
<rect x="23" y="11" width="1" height="1" fill="#10233a"/>
<rect x="4" y="12" width="1" height="1" fill="#10233a"/>
<rect x="5" y="12" width="3" height="1" fill="#ff8fb1"/>
<rect x="8" y="12" width="1" height="1" fill="#ffd6e2"/>
<rect x="9" y="12" width="4" height="1" fill="#ff8fb1"/>
<rect x="13" y="12" width="2" height="1" fill="#10233a"/>
<rect x="15" y="12" width="4" height="1" fill="#ff8fb1"/>
<rect x="19" y="12" width="1" height="1" fill="#ffd6e2"/>
<rect x="20" y="12" width="3" height="1" fill="#ff8fb1"/>
<rect x="23" y="12" width="1" height="1" fill="#10233a"/>
<rect x="5" y="13" width="1" height="1" fill="#10233a"/>
<rect x="6" y="13" width="2" height="1" fill="#ff8fb1"/>
<rect x="8" y="13" width="3" height="1" fill="#ffd6e2"/>
<rect x="11" y="13" width="2" height="1" fill="#ff8fb1"/>
<rect x="13" y="13" width="2" height="1" fill="#10233a"/>
<rect x="15" y="13" width="2" height="1" fill="#ff8fb1"/>
<rect x="17" y="13" width="3" height="1" fill="#ffd6e2"/>
<rect x="20" y="13" width="2" height="1" fill="#ff8fb1"/>
<rect x="22" y="13" width="1" height="1" fill="#10233a"/>
<rect x="5" y="14" width="1" height="1" fill="#10233a"/>
<rect x="6" y="14" width="7" height="1" fill="#ff8fb1"/>
<rect x="13" y="14" width="2" height="1" fill="#10233a"/>
<rect x="15" y="14" width="7" height="1" fill="#ff8fb1"/>
<rect x="22" y="14" width="1" height="1" fill="#10233a"/>
<rect x="6" y="15" width="1" height="1" fill="#10233a"/>
<rect x="7" y="15" width="6" height="1" fill="#ff8fb1"/>
<rect x="13" y="15" width="2" height="1" fill="#10233a"/>
<rect x="15" y="15" width="6" height="1" fill="#ff8fb1"/>
<rect x="21" y="15" width="1" height="1" fill="#10233a"/>
<rect x="7" y="16" width="2" height="1" fill="#10233a"/>
<rect x="9" y="16" width="4" height="1" fill="#ff8fb1"/>
<rect x="13" y="16" width="2" height="1" fill="#10233a"/>
<rect x="15" y="16" width="4" height="1" fill="#ff8fb1"/>
<rect x="19" y="16" width="2" height="1" fill="#10233a"/>
<rect x="9" y="17" width="10" height="1" fill="#10233a"/>
<rect x="13" y="18" width="2" height="1" fill="#10233a"/>
<rect x="10" y="19" width="3" height="1" fill="#10233a"/>
<rect x="13" y="19" width="2" height="1" fill="#10233a"/>
<rect x="15" y="19" width="3" height="1" fill="#10233a"/>
<rect x="10" y="20" width="1" height="1" fill="#10233a"/>
<rect x="13" y="20" width="2" height="1" fill="#10233a"/>
<rect x="17" y="20" width="1" height="1" fill="#10233a"/>
<rect x="9" y="21" width="3" height="1" fill="#10233a"/>
<rect x="13" y="21" width="2" height="1" fill="#10233a"/>
<rect x="16" y="21" width="3" height="1" fill="#10233a"/>
<rect x="9" y="22" width="3" height="1" fill="#10233a"/>
<rect x="16" y="22" width="3" height="1" fill="#10233a"/>
</svg>